<?xml version="1.0" encoding="UTF-8"?>
<svg id="Layer_1" xmlns="http://www.w3.org/2000/svg" version="1.1" viewBox="0 0 792 320">
  <!-- Generator: Adobe Illustrator 29.8.3, SVG Export Plug-In . SVG Version: 2.1.1 Build 3)  -->
  <defs>
    <style>
      .st0 {
        fill: #3d5563;
      }

      .st1 {
        fill: #66827d;
      }

      .st2 {
        fill: #c6b9ac;
      }
    </style>
  </defs>
  <polygon class="st2" points="748.5 78.1 748.5 86.6 774 86.6 774 219.4 686.3 219.4 686.3 227.8 782.6 227.8 782.6 78.1 748.5 78.1"/>
  <path class="st0" d="M69.6,58.7h38c22.1,0,29.1,9.7,29.1,25s-7.4,26.5-29.1,26.5h-38v-51.5ZM107.1,204.6c-1.8.1-5.8.2-7.8.2h-29.7v-69.2h41.8c27.4,0,37.5,14.2,38.6,34.7.8,16.3-3.4,22.4-7.8,25l13.5,24.2c16-9.8,26.4-31.3,26.4-48,0-25.9-14.7-43.9-38.3-50.6,14.7-7.4,24.1-20.3,24.1-38,0-28.5-18.5-51.2-58.6-51.2H38.4v200.2h76.2c5.8,0,.5.7,5.6-.1l-13.1-27.1Z"/>
  <g>
    <rect class="st1" x="257.5" y="145" width="13.9" height="82.6"/>
    <polygon class="st1" points="314 145 300 145 300 227.6 349.9 227.6 349.9 215.1 314 215.1 314 145"/>
    <polygon class="st1" points="384.4 145 370.5 145 370.5 227.6 415.8 227.6 421.1 215.1 384.4 215.1 384.4 145"/>
    <path class="st1" d="M473.2,143.3h-1.4l-36.2,84.3h14.1l4.7-11.4h35.7l4.7,11.4h14.7l-36.2-84v-.3ZM484.9,203.7h-25.2l12.7-30.3c3.6,8.5,11,26.5,12.5,30.3Z"/>
    <path class="st1" d="M562.8,202.7h21.8v8.4c-5.1,3.3-11.4,4.9-19.2,4.9-17.5,0-29.8-12.2-29.8-29.7s11.6-29.7,27.6-29.7,16.7,3.6,22,9.5l.4.4,9.7-9.1-.4-.4c-8-9-17.9-13.1-31.3-13.1-24.2,0-42.4,18.2-42.4,42.4s18.6,42.4,44.2,42.4,26.4-6.2,32-10.8l.2-.2v-27.5h-34.8v12.5Z"/>
    <polygon class="st1" points="636.6 215.1 636.6 194.1 671.3 194.1 671.3 181.8 636.6 181.8 636.6 157.5 675.7 157.5 675.7 145 622.7 145 622.7 227.6 677.4 227.6 677.4 215.1 636.6 215.1"/>
  </g>
  <g>
    <path class="st0" d="M219.8,38.1h-1.4l-36.3,84.6h14.2l4.7-11.4h35.8l4.7,11.4h14.8l-36.3-84.2v-.3ZM231.5,98.7h-25.3l12.8-30.4c3.6,8.6,11.1,26.6,12.6,30.4Z"/>
    <polygon class="st0" points="290.5 81.9 267.6 39.8 252.1 39.8 283.3 96.3 283.3 122.6 297.3 122.6 297.3 96.1 327.7 39.8 313 39.8 290.5 81.9"/>
    <path class="st0" d="M375.7,74l-5.7-2.5c-8.7-3.9-12.5-6.2-12.5-12.5s3.8-9,9.9-9,9.7,2.4,12.9,7.7l.3.5,10.7-7-.3-.4c-5.3-8.8-13.1-13.1-23.8-13.1s-23.3,9-23.3,21.8,2.5,16.9,20.5,24.8l5.7,2.5c7.1,3.2,12.7,5.7,12.7,13.1s-5.5,10.2-13.9,10.2-14.4-3.7-18-10.8l-.2-.5-11.8,5.9.3.5c6,11.3,16.6,17.5,30,17.5s27.6-8.9,27.6-23.2-7.7-19.6-20.9-25.5Z"/>
    <polygon class="st0" points="469.9 85.1 431.8 85.1 431.8 39.8 417.8 39.8 417.8 122.6 431.8 122.6 431.8 97.6 469.9 97.6 469.9 122.6 483.9 122.6 483.9 39.8 469.9 39.8 469.9 85.1"/>
    <path class="st0" d="M548.1,37.6c-24.4,0-42.8,18.3-42.8,42.5s18.4,42.5,42.8,42.5,42.8-18.3,42.8-42.5-18.4-42.5-42.8-42.5ZM548.1,50.4c16.4,0,28.3,12.5,28.3,29.8s-11.9,29.8-28.3,29.8-28.3-12.5-28.3-29.8,11.9-29.8,28.3-29.8Z"/>
    <path class="st0" d="M669.2,71.6c0-19.9-13.2-31.8-35.4-31.8h-21.5v82.9h14v-19.5h7.5c2,0,3.9-.1,5.6-.3l13.9,19.8h16.6l-16.8-23.5c10.4-5,16.1-14.8,16.1-27.5ZM654.9,71.6c0,13.1-7.1,19.4-21.6,19.4h-7v-38.7h7c14.5,0,21.6,6.3,21.6,19.3Z"/>
    <polygon class="st0" points="704.8 110.1 704.8 89 739.6 89 739.6 76.7 704.8 76.7 704.8 52.3 744.1 52.3 744.1 39.8 690.9 39.8 690.9 122.6 745.7 122.6 745.7 110.1 704.8 110.1"/>
  </g>
  <path class="st0" d="M267.9,273.4l-9.2-23.3h-5.1l-9.2,23.3h4.7l1.7-4.5h10.7l1.7,4.5h4.7ZM260.4,265.3h-8.4l4.2-11.1,4.2,11.1ZM293,273.8c6.3,0,9-3.4,9-7.2,0-8.7-13.6-6-13.6-10.4s1.5-2.9,3.9-2.9,4.9.8,6.8,2.7l2.3-3c-2.1-2.1-5.1-3.3-8.7-3.3-5.1,0-8.5,3-8.5,6.9,0,8.6,13.6,5.5,13.6,10.4s-1.3,3.2-4.7,3.2-5.8-1.5-7.4-3.3l-2.3,3.2c2.1,2.2,5.2,3.7,9.5,3.7M317.9,273.4v-19.7h7.1v-3.6h-18.2v3.6h7.1v19.7h4.1ZM349.9,273.4l-9.2-23.3h-5.1l-9.2,23.3h4.7l1.7-4.5h10.7l1.7,4.5h4.7ZM342.4,265.3h-8.4l4.2-11.1,4.2,11.1ZM373.3,273.4l-5.7-9.2c2.8-.5,5.6-2.7,5.6-6.9s-3-7.3-7.7-7.3h-10.2v23.3h4.1v-8.7h4.1l5.1,8.7h4.8ZM365,261.1h-5.6v-7.4h5.6c2.3,0,4,1.4,4,3.7s-1.7,3.7-4,3.7M399.1,273.4l-10.2-12.3,9.5-11h-5.1l-9.1,11.1v-11.1h-4.1v23.3h4.1v-7.4l2.1-2.4,7.8,9.9h5.1ZM430.5,273.4v-3.6h-10.3v-19.7h-4.1v23.3h14.4ZM441,250.1h-4.1v23.3h4.1v-23.3ZM460.6,273.4l9.2-23.3h-4.7l-7.1,18.8-7.1-18.8h-4.7l9.2,23.3h5.1ZM479.1,250.1h-4.1v23.3h4.1v-23.3ZM507.1,273.4v-23.3h-4.1v16.2l-11.9-16.2h-4.2v23.3h4.1v-16.7l12.2,16.7h4ZM526.1,273.8c4,0,7.3-1.7,9.6-4.3v-8.7h-11.1v3.6h7v3.6c-1,1-3.1,2.1-5.5,2.1-4.6,0-8-3.6-8-8.4s3.4-8.4,8-8.4,4.8,1.4,6.1,3.1l3.3-1.9c-1.9-2.7-4.8-4.8-9.4-4.8-6.8,0-12.2,4.7-12.2,12.1s5.5,12.1,12.2,12.1M565.8,273.8c4.7,0,7.6-2.5,9.4-5.3l-3.5-1.7c-1.1,1.9-3.4,3.4-5.9,3.4-4.6,0-8-3.6-8-8.4s3.4-8.4,8-8.4,4.8,1.4,5.9,3.4l3.5-1.8c-1.7-2.8-4.7-5.2-9.3-5.2-6.9,0-12.2,4.9-12.2,12.1s5.3,12.1,12.2,12.1M592.1,273.8c7,0,11.9-5.1,11.9-12.1s-5-12.1-11.9-12.1-11.9,5.1-11.9,12.1,4.9,12.1,11.9,12.1M592.1,270.2c-4.7,0-7.7-3.6-7.7-8.4s3-8.4,7.7-8.4,7.7,3.6,7.7,8.4-3,8.4-7.7,8.4M635,273.4v-23.3h-5.8l-6.3,16-6.4-16h-5.8v23.3h4.1v-18l7.2,18h1.7l7.1-18v18h4.1ZM667,273.4v-23.3h-5.8l-6.3,16-6.4-16h-5.8v23.3h4.1v-18l7.2,18h1.7l7.1-18v18h4.1ZM684.9,273.8c6.8,0,10.1-3.9,10.1-9.7v-14.1h-4.2v14c0,3.7-2.1,6.1-5.9,6.1s-5.9-2.4-5.9-6.1v-14h-4.2v14.1c0,5.8,3.4,9.7,10.1,9.7M722.9,273.4v-23.3h-4.1v16.2l-11.9-16.2h-4.2v23.3h4.1v-16.7l12.2,16.7h3.9ZM734.8,250.1h-4.1v23.3h4.1v-23.3ZM752.2,273.4v-19.7h7.1v-3.6h-18.2v3.6h7.1v19.7h4.1ZM776.3,273.4v-9.7l9-13.6h-4.7l-6.4,10-6.4-10h-4.7l9.1,13.6v9.7h4.1Z"/>
  <path class="st0" d="M204.9,258.8c.1-.2.2-.3.4-.5.2-.2.4-.5.6-.7,0,0,0,0,0,0,1.1-1,2.6-1.6,4.2-1.6s2.8.5,3.8,1.3c-.8.8-1.5,1.8-2.2,2.6-.5-.3-1-.5-1.6-.5s-1,.1-1.4.4c-.3.2-.5.4-.7.5-.5.5-.8,1.2-.8,2s.2,1.4.7,1.9c0,0,0,0,.1.1,0,0,0,0,0,0,.5.5,1.2.8,2,.8.2,0,.3,0,.5,0,0,0,0,0,0,0,.5-.1,1-.4,1.4-.8.6-.6,1.2-1.5,1.7-2.5.7-2.1,1.7-3.9,3.2-5.3,1.6-1.6,3.6-2.5,5.9-2.5s0,0,0,0,0,0,0,0c.2,0,.4,0,.6,0,0,0,.1,0,.2,0,.2,0,.3,0,.5,0,.1,0,.2,0,.4,0,0,0,.1,0,.2,0,.5.1.9.2,1.4.4,0,0,0,0,0,0,.2,0,.4.2.6.3,1.2.6,2.2,1.6,2.9,2.7-1.9-4.9-6.6-8.4-12.2-8.4s-11.1,4.1-12.6,9.6"/>
  <path class="st0" d="M223.5,270.6c0,0-.1,0-.2,0h0c-.1,0-.3,0-.4,0-3,0-5.6-1.6-7.1-4.1,1.1-.3,2.3-.5,3.4-.8.8.8,1.8,1.3,3,1.5,2.3,0,3.3-.7,4.1-1.5.4-.4.8-.9,1-1.5.2-.6.4-1.3.4-2,0-1.4-.6-2.6-1.4-3.5-1-.9-2.1-1.4-3.4-1.4s-1.4.1-2,.4c-.2,0-.3.2-.5.3,0,0,0,0,0,0-.3.2-.7.5-1,.8-.9.9-1.6,2-2.2,3.4-.6,1.9-1.5,3.4-2.7,4.6-.8.8-1.7,1.3-2.8,1.6-.5.1-1,.2-1.5.2s-1.1,0-1.7-.2c-.9-.2-1.7-.7-2.5-1.3-.1-.1-.2-.2-.4-.3h0c-.3-.3-.6-.6-.8-1,1.5,5.6,6.6,9.6,12.6,9.6s10.3-3.5,12.2-8.4c-1.4,2.1-3.6,3.5-6.2,3.6"/>
  <polygon class="st2" points="7.5 56.7 7.5 261.2 125.7 261.2 121.5 253.5 15.2 253.5 15.2 64.4 28.8 64.4 28.8 56.7 7.5 56.7"/>
  <polygon class="st1" points="76.4 144.6 159 313.1 160.6 313.1 236.3 144.8 206.3 144.8 160.1 248.4 107.7 144.6 76.4 144.6"/>
</svg>