<svg width="98" height="98" viewBox="0 0 98 98" fill="none" xmlns="http://www.w3.org/2000/svg">
<g clip-path="url(#clip0_12424_69)">
<path d="M49 89.3701C71.2957 89.3701 89.3699 71.2958 89.3699 49.0001C89.3699 26.7044 71.2957 8.63013 49 8.63013C26.7043 8.63013 8.63 26.7044 8.63 49.0001C8.63 71.2958 26.7043 89.3701 49 89.3701Z" fill="#F6F3F0"/>
<path d="M49 5.15896C50.4246 5.15896 51.5795 4.00408 51.5795 2.57948C51.5795 1.15487 50.4246 0 49 0C47.5754 0 46.4205 1.15487 46.4205 2.57948C46.4205 4.00408 47.5754 5.15896 49 5.15896Z" fill="#F6F3F0"/>
<path d="M49 98C50.4246 98 51.5795 96.8452 51.5795 95.4205C51.5795 93.9959 50.4246 92.8411 49 92.8411C47.5754 92.8411 46.4205 93.9959 46.4205 95.4205C46.4205 96.8452 47.5754 98 49 98Z" fill="#F6F3F0"/>
<path d="M81.8242 18.7551C83.2488 18.7551 84.4037 17.6003 84.4037 16.1757C84.4037 14.7511 83.2488 13.5962 81.8242 13.5962C80.3996 13.5962 79.2448 14.7511 79.2448 16.1757C79.2448 17.6003 80.3996 18.7551 81.8242 18.7551Z" fill="#66827D"/>
<path d="M16.1757 84.4038C17.6003 84.4038 18.7552 83.249 18.7552 81.8244C18.7552 80.3997 17.6003 79.2449 16.1757 79.2449C14.7511 79.2449 13.5963 80.3997 13.5963 81.8244C13.5963 83.249 14.7511 84.4038 16.1757 84.4038Z" fill="#F6F3F0"/>
<path d="M95.4205 51.5794C96.8452 51.5794 98 50.4245 98 48.9999C98 47.5753 96.8452 46.4204 95.4205 46.4204C93.9959 46.4204 92.8411 47.5753 92.8411 48.9999C92.8411 50.4245 93.9959 51.5794 95.4205 51.5794Z" fill="#66827D"/>
<path d="M2.57948 51.5794C4.00408 51.5794 5.15896 50.4245 5.15896 48.9999C5.15896 47.5753 4.00408 46.4204 2.57948 46.4204C1.15487 46.4204 0 47.5753 0 48.9999C0 50.4245 1.15487 51.5794 2.57948 51.5794Z" fill="#F6F3F0"/>
<path d="M81.8242 84.4038C83.2488 84.4038 84.4037 83.249 84.4037 81.8243C84.4037 80.3997 83.2488 79.2449 81.8242 79.2449C80.3996 79.2449 79.2448 80.3997 79.2448 81.8243C79.2448 83.249 80.3996 84.4038 81.8242 84.4038Z" fill="#66827D"/>
<path d="M16.1757 18.7551C17.6003 18.7551 18.7552 17.6003 18.7552 16.1757C18.7552 14.7511 17.6003 13.5962 16.1757 13.5962C14.7511 13.5962 13.5963 14.7511 13.5963 16.1757C13.5963 17.6003 14.7511 18.7551 16.1757 18.7551Z" fill="#F6F3F0"/>
<path d="M66.7153 94.4868C68.1399 94.4868 69.2948 93.332 69.2948 91.9074C69.2948 90.4827 68.1399 89.3279 66.7153 89.3279C65.2907 89.3279 64.1359 90.4827 64.1359 91.9074C64.1359 93.332 65.2907 94.4868 66.7153 94.4868Z" fill="#66827D"/>
<path d="M31.2847 8.67214C32.7093 8.67214 33.8642 7.51727 33.8642 6.09266C33.8642 4.66806 32.7093 3.51318 31.2847 3.51318C29.8601 3.51318 28.7052 4.66806 28.7052 6.09266C28.7052 7.51727 29.8601 8.67214 31.2847 8.67214Z" fill="#F6F3F0"/>
<path d="M31.1866 94.4461C32.6112 94.4461 33.7661 93.2912 33.7661 91.8666C33.7661 90.442 32.6112 89.2871 31.1866 89.2871C29.762 89.2871 28.6071 90.442 28.6071 91.8666C28.6071 93.2912 29.762 94.4461 31.1866 94.4461Z" fill="#F6F3F0"/>
<path d="M66.8134 8.71291C68.238 8.71291 69.3928 7.55804 69.3928 6.13343C69.3928 4.70883 68.238 3.55396 66.8134 3.55396C65.3888 3.55396 64.2339 4.70883 64.2339 6.13343C64.2339 7.55804 65.3888 8.71291 66.8134 8.71291Z" fill="#66827D"/>
<path d="M6.09272 69.2947C7.51733 69.2947 8.6722 68.1398 8.6722 66.7152C8.6722 65.2906 7.51733 64.1357 6.09272 64.1357C4.66812 64.1357 3.51324 65.2906 3.51324 66.7152C3.51324 68.1398 4.66812 69.2947 6.09272 69.2947Z" fill="#F6F3F0"/>
<path d="M91.9072 33.8643C93.3318 33.8643 94.4867 32.7094 94.4867 31.2848C94.4867 29.8602 93.3318 28.7053 91.9072 28.7053C90.4826 28.7053 89.3278 29.8602 89.3278 31.2848C89.3278 32.7094 90.4826 33.8643 91.9072 33.8643Z" fill="#66827D"/>
<path d="M6.13337 33.7661C7.55798 33.7661 8.71285 32.6113 8.71285 31.1867C8.71285 29.762 7.55798 28.6072 6.13337 28.6072C4.70877 28.6072 3.55389 29.762 3.55389 31.1867C3.55389 32.6113 4.70877 33.7661 6.13337 33.7661Z" fill="#F6F3F0"/>
<path d="M91.8666 69.3928C93.2912 69.3928 94.4461 68.238 94.4461 66.8134C94.4461 65.3888 93.2912 64.2339 91.8666 64.2339C90.442 64.2339 89.2871 65.3888 89.2871 66.8134C89.2871 68.238 90.442 69.3928 91.8666 69.3928Z" fill="#66827D"/>
</g>
<path d="M50.3684 38.676C50.3684 41.308 49.4724 43.604 47.9324 45.284L49.3044 46.88L46.5324 49.148L45.0484 47.384C43.7324 48 42.2204 48.336 40.5964 48.336C34.9684 48.336 30.8524 44.304 30.8524 38.676C30.8524 33.048 34.9684 29.016 40.5964 29.016C46.2524 29.016 50.3684 33.048 50.3684 38.676ZM40.5964 44.808C41.2964 44.808 41.9684 44.696 42.5564 44.472L40.4284 41.98L43.2004 39.74L45.3284 42.232C45.9444 41.252 46.2804 40.02 46.2804 38.676C46.2804 35.176 44.0404 32.544 40.5964 32.544C37.1524 32.544 34.9404 35.176 34.9404 38.676C34.9404 42.148 37.1524 44.808 40.5964 44.808ZM66.6825 48H52.6265V44.864C60.2705 39.236 62.5105 37.304 62.5105 35.008C62.5105 33.384 61.0265 32.572 59.4585 32.572C57.3585 32.572 55.7345 33.412 54.4745 34.728L52.2065 32.096C54.0265 29.996 56.7985 29.044 59.4025 29.044C63.3785 29.044 66.5425 31.284 66.5425 35.008C66.5425 38.2 63.9105 40.972 58.8985 44.5H66.6825V48ZM37.05 72H28.014V69.984C32.928 66.366 34.368 65.124 34.368 63.648C34.368 62.604 33.414 62.082 32.406 62.082C31.056 62.082 30.012 62.622 29.202 63.468L27.744 61.776C28.914 60.426 30.696 59.814 32.37 59.814C34.926 59.814 36.96 61.254 36.96 63.648C36.96 65.7 35.268 67.482 32.046 69.75H37.05V72ZM38.5729 66.006C38.5729 62.91 40.1029 59.814 43.5409 59.814C46.9609 59.814 48.5089 62.91 48.5089 66.006C48.5089 69.102 46.9609 72.216 43.5409 72.216C40.1029 72.216 38.5729 69.102 38.5729 66.006ZM45.8989 66.006C45.8989 63.792 45.2509 62.082 43.5409 62.082C41.8129 62.082 41.1649 63.792 41.1649 66.006C41.1649 68.22 41.8129 69.948 43.5409 69.948C45.2509 69.948 45.8989 68.22 45.8989 66.006ZM59.005 72H49.969V69.984C54.883 66.366 56.323 65.124 56.323 63.648C56.323 62.604 55.369 62.082 54.361 62.082C53.011 62.082 51.967 62.622 51.157 63.468L49.699 61.776C50.869 60.426 52.651 59.814 54.325 59.814C56.881 59.814 58.915 61.254 58.915 63.648C58.915 65.7 57.223 67.482 54.001 69.75H59.005V72ZM60.546 68.886C60.546 67.428 61.68 66.312 63.12 65.808C61.788 65.358 60.744 64.476 60.744 62.982C60.744 60.732 63.138 59.814 65.37 59.814C67.584 59.814 69.996 60.732 69.996 62.982C69.996 64.476 68.934 65.358 67.602 65.808C69.042 66.312 70.194 67.428 70.194 68.886C70.194 71.118 67.89 72.216 65.37 72.216C62.85 72.216 60.546 71.136 60.546 68.886ZM67.386 63.378C67.386 62.532 66.54 62.01 65.37 62.01C64.182 62.01 63.336 62.532 63.336 63.378C63.336 64.314 64.632 64.728 65.37 64.836C66.108 64.728 67.386 64.314 67.386 63.378ZM67.602 68.58C67.602 67.536 66.108 67.032 65.37 66.942C64.614 67.032 63.138 67.536 63.138 68.58C63.138 69.462 64.11 70.02 65.37 70.02C66.594 70.02 67.602 69.462 67.602 68.58Z" fill="#3D5563"/>
<defs>
<clipPath id="clip0_12424_69">
<rect width="98" height="98" fill="white"/>
</clipPath>
</defs>
</svg>
