<svg width="98" height="98" viewBox="0 0 98 98" fill="none" xmlns="http://www.w3.org/2000/svg">
<g clip-path="url(#clip0_12424_68)">
<path d="M49 89.3701C71.2957 89.3701 89.3699 71.2958 89.3699 49.0001C89.3699 26.7044 71.2957 8.63013 49 8.63013C26.7043 8.63013 8.63 26.7044 8.63 49.0001C8.63 71.2958 26.7043 89.3701 49 89.3701Z" fill="#F6F3F0"/>
<path d="M49 5.15896C50.4246 5.15896 51.5795 4.00408 51.5795 2.57948C51.5795 1.15487 50.4246 0 49 0C47.5754 0 46.4205 1.15487 46.4205 2.57948C46.4205 4.00408 47.5754 5.15896 49 5.15896Z" fill="#66827D"/>
<path d="M49 98C50.4246 98 51.5795 96.8452 51.5795 95.4205C51.5795 93.9959 50.4246 92.8411 49 92.8411C47.5754 92.8411 46.4205 93.9959 46.4205 95.4205C46.4205 96.8452 47.5754 98 49 98Z" fill="#F6F3F0"/>
<path d="M81.8243 18.7551C83.2489 18.7551 84.4038 17.6003 84.4038 16.1757C84.4038 14.7511 83.2489 13.5962 81.8243 13.5962C80.3997 13.5962 79.2448 14.7511 79.2448 16.1757C79.2448 17.6003 80.3997 18.7551 81.8243 18.7551Z" fill="#66827D"/>
<path d="M16.1757 84.4038C17.6003 84.4038 18.7552 83.249 18.7552 81.8244C18.7552 80.3997 17.6003 79.2449 16.1757 79.2449C14.7511 79.2449 13.5963 80.3997 13.5963 81.8244C13.5963 83.249 14.7511 84.4038 16.1757 84.4038Z" fill="#F6F3F0"/>
<path d="M95.4205 51.5794C96.8452 51.5794 98 50.4245 98 48.9999C98 47.5753 96.8452 46.4204 95.4205 46.4204C93.9959 46.4204 92.8411 47.5753 92.8411 48.9999C92.8411 50.4245 93.9959 51.5794 95.4205 51.5794Z" fill="#F6F3F0"/>
<path d="M2.57948 51.5794C4.00408 51.5794 5.15896 50.4245 5.15896 48.9999C5.15896 47.5753 4.00408 46.4204 2.57948 46.4204C1.15487 46.4204 0 47.5753 0 48.9999C0 50.4245 1.15487 51.5794 2.57948 51.5794Z" fill="#F6F3F0"/>
<path d="M81.8243 84.4038C83.2489 84.4038 84.4038 83.249 84.4038 81.8243C84.4038 80.3997 83.2489 79.2449 81.8243 79.2449C80.3997 79.2449 79.2448 80.3997 79.2448 81.8243C79.2448 83.249 80.3997 84.4038 81.8243 84.4038Z" fill="#F6F3F0"/>
<path d="M16.1757 18.7551C17.6003 18.7551 18.7552 17.6003 18.7552 16.1757C18.7552 14.7511 17.6003 13.5962 16.1757 13.5962C14.7511 13.5962 13.5963 14.7511 13.5963 16.1757C13.5963 17.6003 14.7511 18.7551 16.1757 18.7551Z" fill="#F6F3F0"/>
<path d="M66.7153 94.4868C68.1399 94.4868 69.2948 93.332 69.2948 91.9074C69.2948 90.4827 68.1399 89.3279 66.7153 89.3279C65.2907 89.3279 64.1359 90.4827 64.1359 91.9074C64.1359 93.332 65.2907 94.4868 66.7153 94.4868Z" fill="#F6F3F0"/>
<path d="M31.2847 8.67214C32.7093 8.67214 33.8642 7.51727 33.8642 6.09266C33.8642 4.66806 32.7093 3.51318 31.2847 3.51318C29.8601 3.51318 28.7052 4.66806 28.7052 6.09266C28.7052 7.51727 29.8601 8.67214 31.2847 8.67214Z" fill="#F6F3F0"/>
<path d="M31.1866 94.4461C32.6112 94.4461 33.7661 93.2912 33.7661 91.8666C33.7661 90.442 32.6112 89.2871 31.1866 89.2871C29.762 89.2871 28.6071 90.442 28.6071 91.8666C28.6071 93.2912 29.762 94.4461 31.1866 94.4461Z" fill="#F6F3F0"/>
<path d="M66.8134 8.71291C68.238 8.71291 69.3928 7.55804 69.3928 6.13343C69.3928 4.70883 68.238 3.55396 66.8134 3.55396C65.3888 3.55396 64.2339 4.70883 64.2339 6.13343C64.2339 7.55804 65.3888 8.71291 66.8134 8.71291Z" fill="#66827D"/>
<path d="M6.09272 69.2947C7.51733 69.2947 8.6722 68.1398 8.6722 66.7152C8.6722 65.2906 7.51733 64.1357 6.09272 64.1357C4.66812 64.1357 3.51324 65.2906 3.51324 66.7152C3.51324 68.1398 4.66812 69.2947 6.09272 69.2947Z" fill="#F6F3F0"/>
<path d="M91.9072 33.8643C93.3318 33.8643 94.4867 32.7094 94.4867 31.2848C94.4867 29.8602 93.3318 28.7053 91.9072 28.7053C90.4826 28.7053 89.3278 29.8602 89.3278 31.2848C89.3278 32.7094 90.4826 33.8643 91.9072 33.8643Z" fill="#66827D"/>
<path d="M6.13337 33.7661C7.55798 33.7661 8.71285 32.6113 8.71285 31.1867C8.71285 29.762 7.55798 28.6072 6.13337 28.6072C4.70877 28.6072 3.55389 29.762 3.55389 31.1867C3.55389 32.6113 4.70877 33.7661 6.13337 33.7661Z" fill="#F6F3F0"/>
<path d="M91.8666 69.3928C93.2912 69.3928 94.4461 68.238 94.4461 66.8134C94.4461 65.3888 93.2912 64.2339 91.8666 64.2339C90.442 64.2339 89.2872 65.3888 89.2872 66.8134C89.2872 68.238 90.442 69.3928 91.8666 69.3928Z" fill="#F6F3F0"/>
</g>
<path d="M50.5461 38.676C50.5461 41.308 49.6501 43.604 48.1101 45.284L49.4821 46.88L46.7101 49.148L45.2261 47.384C43.9101 48 42.3981 48.336 40.7741 48.336C35.1461 48.336 31.0301 44.304 31.0301 38.676C31.0301 33.048 35.1461 29.016 40.7741 29.016C46.4301 29.016 50.5461 33.048 50.5461 38.676ZM40.7741 44.808C41.4741 44.808 42.1461 44.696 42.7341 44.472L40.6061 41.98L43.3781 39.74L45.5061 42.232C46.1221 41.252 46.4581 40.02 46.4581 38.676C46.4581 35.176 44.2181 32.544 40.7741 32.544C37.3301 32.544 35.1181 35.176 35.1181 38.676C35.1181 42.148 37.3301 44.808 40.7741 44.808ZM52.0483 45.34L54.1203 42.736C55.4083 44.08 57.4523 44.864 59.2723 44.864C61.5403 44.864 62.8003 43.884 62.8003 42.456C62.8003 40.944 61.6523 40.244 59.0483 40.244C58.2643 40.244 57.0043 40.244 56.7243 40.272V36.8C57.0603 36.828 58.3203 36.828 59.0483 36.828C61.1203 36.828 62.4923 36.156 62.4923 34.756C62.4923 33.272 60.9803 32.516 59.0203 32.516C57.2003 32.516 55.5763 33.216 54.2603 34.476L52.3003 32.012C53.8123 30.304 56.1643 29.044 59.4403 29.044C63.8083 29.044 66.4963 31.004 66.4963 34.112C66.4963 36.464 64.4803 38.004 62.4083 38.368C64.3123 38.564 66.7763 40.048 66.7763 42.848C66.7763 46.068 63.8923 48.336 59.4123 48.336C55.9683 48.336 53.4203 47.02 52.0483 45.34ZM37.6037 72H28.5677V69.984C33.4817 66.366 34.9217 65.124 34.9217 63.648C34.9217 62.604 33.9677 62.082 32.9597 62.082C31.6097 62.082 30.5657 62.622 29.7557 63.468L28.2977 61.776C29.4677 60.426 31.2497 59.814 32.9237 59.814C35.4797 59.814 37.5137 61.254 37.5137 63.648C37.5137 65.7 35.8217 67.482 32.5997 69.75H37.6037V72ZM39.1266 66.006C39.1266 62.91 40.6566 59.814 44.0946 59.814C47.5146 59.814 49.0626 62.91 49.0626 66.006C49.0626 69.102 47.5146 72.216 44.0946 72.216C40.6566 72.216 39.1266 69.102 39.1266 66.006ZM46.4526 66.006C46.4526 63.792 45.8046 62.082 44.0946 62.082C42.3666 62.082 41.7186 63.792 41.7186 66.006C41.7186 68.22 42.3666 69.948 44.0946 69.948C45.8046 69.948 46.4526 68.22 46.4526 66.006ZM59.5588 72H50.5228V69.984C55.4368 66.366 56.8768 65.124 56.8768 63.648C56.8768 62.604 55.9228 62.082 54.9148 62.082C53.5648 62.082 52.5208 62.622 51.7108 63.468L50.2528 61.776C51.4228 60.426 53.2048 59.814 54.8788 59.814C57.4348 59.814 59.4688 61.254 59.4688 63.648C59.4688 65.7 57.7768 67.482 54.5548 69.75H59.5588V72ZM65.4557 72H62.6477L66.9497 62.244H60.9017V59.994H69.9197V61.776L65.4557 72Z" fill="#3D5563"/>
<defs>
<clipPath id="clip0_12424_68">
<rect width="98" height="98" fill="white"/>
</clipPath>
</defs>
</svg>
