<svg width="98" height="98" viewBox="0 0 98 98" fill="none" xmlns="http://www.w3.org/2000/svg">
<g clip-path="url(#clip0_12424_65)">
<path d="M49 89.3701C71.2957 89.3701 89.37 71.2958 89.37 49.0001C89.37 26.7044 71.2957 8.63013 49 8.63013C26.7043 8.63013 8.63004 26.7044 8.63004 49.0001C8.63004 71.2958 26.7043 89.3701 49 89.3701Z" fill="#F6F3F0"/>
<path d="M49 5.15896C50.4246 5.15896 51.5795 4.00408 51.5795 2.57948C51.5795 1.15487 50.4246 0 49 0C47.5754 0 46.4205 1.15487 46.4205 2.57948C46.4205 4.00408 47.5754 5.15896 49 5.15896Z" fill="#66827D"/>
<path d="M49 98C50.4246 98 51.5795 96.8452 51.5795 95.4205C51.5795 93.9959 50.4246 92.8411 49 92.8411C47.5754 92.8411 46.4205 93.9959 46.4205 95.4205C46.4205 96.8452 47.5754 98 49 98Z" fill="#F6F3F0"/>
<path d="M81.8243 18.7551C83.2489 18.7551 84.4037 17.6003 84.4037 16.1757C84.4037 14.7511 83.2489 13.5962 81.8243 13.5962C80.3997 13.5962 79.2448 14.7511 79.2448 16.1757C79.2448 17.6003 80.3997 18.7551 81.8243 18.7551Z" fill="#66827D"/>
<path d="M16.1757 84.4038C17.6003 84.4038 18.7552 83.249 18.7552 81.8244C18.7552 80.3997 17.6003 79.2449 16.1757 79.2449C14.7511 79.2449 13.5963 80.3997 13.5963 81.8244C13.5963 83.249 14.7511 84.4038 16.1757 84.4038Z" fill="#F6F3F0"/>
<path d="M95.4205 51.5794C96.8451 51.5794 98 50.4245 98 48.9999C98 47.5753 96.8451 46.4204 95.4205 46.4204C93.9959 46.4204 92.841 47.5753 92.841 48.9999C92.841 50.4245 93.9959 51.5794 95.4205 51.5794Z" fill="#66827D"/>
<path d="M2.57948 51.5794C4.00408 51.5794 5.15896 50.4245 5.15896 48.9999C5.15896 47.5753 4.00408 46.4204 2.57948 46.4204C1.15487 46.4204 0 47.5753 0 48.9999C0 50.4245 1.15487 51.5794 2.57948 51.5794Z" fill="#F6F3F0"/>
<path d="M81.8243 84.4038C83.2489 84.4038 84.4037 83.249 84.4037 81.8243C84.4037 80.3997 83.2489 79.2449 81.8243 79.2449C80.3997 79.2449 79.2448 80.3997 79.2448 81.8243C79.2448 83.249 80.3997 84.4038 81.8243 84.4038Z" fill="#F6F3F0"/>
<path d="M16.1757 18.7551C17.6003 18.7551 18.7552 17.6003 18.7552 16.1757C18.7552 14.7511 17.6003 13.5962 16.1757 13.5962C14.7511 13.5962 13.5963 14.7511 13.5963 16.1757C13.5963 17.6003 14.7511 18.7551 16.1757 18.7551Z" fill="#F6F3F0"/>
<path d="M66.7153 94.4868C68.1399 94.4868 69.2948 93.332 69.2948 91.9074C69.2948 90.4827 68.1399 89.3279 66.7153 89.3279C65.2907 89.3279 64.1358 90.4827 64.1358 91.9074C64.1358 93.332 65.2907 94.4868 66.7153 94.4868Z" fill="#F6F3F0"/>
<path d="M31.2847 8.67214C32.7093 8.67214 33.8642 7.51727 33.8642 6.09266C33.8642 4.66806 32.7093 3.51318 31.2847 3.51318C29.8601 3.51318 28.7052 4.66806 28.7052 6.09266C28.7052 7.51727 29.8601 8.67214 31.2847 8.67214Z" fill="#F6F3F0"/>
<path d="M31.1866 94.4461C32.6112 94.4461 33.7661 93.2912 33.7661 91.8666C33.7661 90.442 32.6112 89.2871 31.1866 89.2871C29.762 89.2871 28.6071 90.442 28.6071 91.8666C28.6071 93.2912 29.762 94.4461 31.1866 94.4461Z" fill="#F6F3F0"/>
<path d="M66.8134 8.71291C68.238 8.71291 69.3929 7.55804 69.3929 6.13343C69.3929 4.70883 68.238 3.55396 66.8134 3.55396C65.3888 3.55396 64.2339 4.70883 64.2339 6.13343C64.2339 7.55804 65.3888 8.71291 66.8134 8.71291Z" fill="#66827D"/>
<path d="M6.09275 69.2947C7.51735 69.2947 8.67222 68.1398 8.67222 66.7152C8.67222 65.2906 7.51735 64.1357 6.09275 64.1357C4.66814 64.1357 3.51327 65.2906 3.51327 66.7152C3.51327 68.1398 4.66814 69.2947 6.09275 69.2947Z" fill="#F6F3F0"/>
<path d="M91.9073 33.8643C93.3319 33.8643 94.4867 32.7094 94.4867 31.2848C94.4867 29.8602 93.3319 28.7053 91.9073 28.7053C90.4827 28.7053 89.3278 29.8602 89.3278 31.2848C89.3278 32.7094 90.4827 33.8643 91.9073 33.8643Z" fill="#66827D"/>
<path d="M6.13337 33.7661C7.55798 33.7661 8.71285 32.6113 8.71285 31.1867C8.71285 29.762 7.55798 28.6072 6.13337 28.6072C4.70876 28.6072 3.55389 29.762 3.55389 31.1867C3.55389 32.6113 4.70876 33.7661 6.13337 33.7661Z" fill="#F6F3F0"/>
<path d="M91.8666 69.3928C93.2912 69.3928 94.4461 68.238 94.4461 66.8134C94.4461 65.3888 93.2912 64.2339 91.8666 64.2339C90.442 64.2339 89.2872 65.3888 89.2872 66.8134C89.2872 68.238 90.442 69.3928 91.8666 69.3928Z" fill="#F6F3F0"/>
</g>
<path d="M50.4094 38.676C50.4094 41.308 49.5134 43.604 47.9734 45.284L49.3454 46.88L46.5734 49.148L45.0894 47.384C43.7734 48 42.2614 48.336 40.6374 48.336C35.0094 48.336 30.8934 44.304 30.8934 38.676C30.8934 33.048 35.0094 29.016 40.6374 29.016C46.2934 29.016 50.4094 33.048 50.4094 38.676ZM40.6374 44.808C41.3374 44.808 42.0094 44.696 42.5974 44.472L40.4694 41.98L43.2414 39.74L45.3694 42.232C45.9854 41.252 46.3214 40.02 46.3214 38.676C46.3214 35.176 44.0814 32.544 40.6374 32.544C37.1934 32.544 34.9814 35.176 34.9814 38.676C34.9814 42.148 37.1934 44.808 40.6374 44.808ZM64.9596 48H60.9836V44.136H52.0516V41L59.4716 29.324H64.9596V40.636H67.3676V44.136H64.9596V48ZM60.9836 40.636V32.852L55.9436 40.636H60.9836ZM37.0324 72H27.9964V69.984C32.9104 66.366 34.3504 65.124 34.3504 63.648C34.3504 62.604 33.3964 62.082 32.3884 62.082C31.0384 62.082 29.9944 62.622 29.1844 63.468L27.7264 61.776C28.8964 60.426 30.6784 59.814 32.3524 59.814C34.9084 59.814 36.9424 61.254 36.9424 63.648C36.9424 65.7 35.2504 67.482 32.0284 69.75H37.0324V72ZM38.5554 66.006C38.5554 62.91 40.0854 59.814 43.5234 59.814C46.9434 59.814 48.4914 62.91 48.4914 66.006C48.4914 69.102 46.9434 72.216 43.5234 72.216C40.0854 72.216 38.5554 69.102 38.5554 66.006ZM45.8814 66.006C45.8814 63.792 45.2334 62.082 43.5234 62.082C41.7954 62.082 41.1474 63.792 41.1474 66.006C41.1474 68.22 41.7954 69.948 43.5234 69.948C45.2334 69.948 45.8814 68.22 45.8814 66.006ZM58.9875 72H49.9515V69.984C54.8655 66.366 56.3055 65.124 56.3055 63.648C56.3055 62.604 55.3515 62.082 54.3435 62.082C52.9935 62.082 51.9495 62.622 51.1395 63.468L49.6815 61.776C50.8515 60.426 52.6335 59.814 54.3075 59.814C56.8635 59.814 58.8975 61.254 58.8975 63.648C58.8975 65.7 57.2055 67.482 53.9835 69.75H58.9875V72ZM60.7804 70.416L62.1844 68.688C63.0124 69.534 64.1284 69.984 65.3884 69.984C66.8104 69.984 67.6204 69.174 67.6204 68.184C67.6204 67.086 66.8284 66.348 65.4604 66.348C64.4704 66.348 63.6604 66.654 62.9404 67.338L61.1584 66.852V59.994H69.4024V62.19H63.6604V65.196C64.2904 64.638 65.2624 64.206 66.3604 64.206C68.3944 64.206 70.2124 65.646 70.2124 68.076C70.2124 70.614 68.3044 72.216 65.4064 72.216C63.3184 72.216 61.8064 71.532 60.7804 70.416Z" fill="#3D5563"/>
<defs>
<clipPath id="clip0_12424_65">
<rect width="98" height="98" fill="white"/>
</clipPath>
</defs>
</svg>
